<svg xmlns="http://www.w3.org/2000/svg" xmlns:xlink="http://www.w3.org/1999/xlink" version="1.1" x="0px" y="0px" viewBox="0 0 50 62.5" enable-background="new 0 0 50 50" xml:space="preserve"><g><g><path d="M25.08379,14.02912c3.43994,0,6.09985-3.73999,6.09985-6.96008c0-3.34985-2.71997-6.06995-6.06982-6.06995    c-3.34009,0-6.06006,2.72009-6.06006,6.06995C19.05376,10.35907,21.63384,14.02912,25.08379,14.02912z"/></g><g><path d="M16.95366,45.47919c0,1.93994,1.58008,3.5199,3.53003,3.5199c1.94019,0,3.52002-1.57996,3.52002-3.5199V33.02912h-7.05005    V45.47919z"/></g><g><path d="M25.72368,45.47919c0,1.93994,1.58008,3.5199,3.53003,3.5199h0.01001c1.93994,0,3.52002-1.57996,3.52002-3.5199V33.02912    h-7.06006V45.47919z"/></g><g><path d="M39.54375,21.34906l-8.59985-7.82996l-0.21021-0.19006l-0.02002-0.02002    c-1.41992,1.62012-3.38989,2.72009-5.62988,2.72009c-2.32007,0-4.29004-1.13-5.69995-2.79004    c-0.03003,0.02002-0.05005,0.04004-0.08008,0.06006c-0.01001,0.00989-0.03003,0.0199-0.05005,0.02991l-0.36987,0.34009    l-8.43994,7.67993c-1.3374,1.23059-1.26685,3.36011,0.12354,4.48926v22.1626c0,0.55225,0.44727,1,1,1s1-0.44775,1-1V26.51093    c0.62622-0.02588,1.24146-0.24243,1.74634-0.65186l2.6499-2.12988v7.29993h15.81006l0.02002-7.48999l2.88013,2.31995    c0.8999,0.72998,2.15991,0.87012,3.19995,0.3501C40.75371,25.26911,41.08379,22.73908,39.54375,21.34906z"/></g></g></svg>