<svg xmlns="http://www.w3.org/2000/svg" xmlns:xlink="http://www.w3.org/1999/xlink" version="1.1" x="0px" y="0px" viewBox="0 0 100 125" style="enable-background:new 0 0 100 100;" xml:space="preserve"><g><circle cx="50" cy="12.7" r="9.6"/><path d="M62,23.1h-4.4c-0.8,0-1.4,0.5-1.6,1.3L51.8,43l-0.6-15.3c0.6-0.2,1.1-0.8,1.1-1.5v-0.8c0-0.9-0.7-1.6-1.6-1.6h-1.5   c-0.9,0-1.6,0.7-1.6,1.6v0.8c0,0.7,0.5,1.3,1.1,1.5L48.2,43L44,24.3c-0.2-0.7-0.8-1.3-1.6-1.3H38c-2.5,0-4.4,2.1-4.2,4.6l1.2,27.3   c0.2,1.8,1.6,3.1,3.4,3.1h0.8l2.1,37.2c0.1,0.9,0.8,1.7,1.8,1.7h3.4c1,0,1.8-0.8,1.8-1.8l1.6-34.9c0-0.6,0.2-0.6,0.2,0l1.6,34.9   c0,1,0.8,1.8,1.8,1.8h3.4c0.9,0,1.7-0.7,1.8-1.7L60.8,58h0.8c1.8,0,3.2-1.3,3.4-3.1l1.2-27.3C66.4,25.2,64.5,23.1,62,23.1z"/></g></svg>