<svg xmlns="http://www.w3.org/2000/svg" data-name="Layer 1" viewBox="0 0 100 125" x="0px" y="0px"><title>Artboard 1 copy 40</title><circle cx="70.67025" cy="7.08894" r="1.35883"/><path d="M69.684,8.86967h1.9725a1.39719,1.39719,0,0,1,1.39719,1.39718v2.83821A1.39719,1.39719,0,0,1,71.925,14.47485V17.5651a1.03009,1.03009,0,0,1-1.03008,1.03009h-.4493a1.03009,1.03009,0,0,1-1.03008-1.03009h0V14.46937a1.39718,1.39718,0,0,1-1.12871-1.36979v-2.8382A1.39719,1.39719,0,0,1,69.684,8.86967Z"/><circle cx="55.79833" cy="2.26727" r="1.35883"/><path d="M54.81208,4.048h1.9725a1.39719,1.39719,0,0,1,1.39719,1.39719v2.8382a1.3972,1.3972,0,0,1-1.12871,1.3698v3.09024A1.03009,1.03009,0,0,1,56.023,13.77352h-.4493a1.03009,1.03009,0,0,1-1.03008-1.03009h0V9.64771a1.39719,1.39719,0,0,1-1.12871-1.36979V5.43971A1.39719,1.39719,0,0,1,54.81208,4.048Z"/><circle cx="39.59338" cy="3.22548" r="1.35883"/><path d="M38.60713,5.00621h1.9725A1.39719,1.39719,0,0,1,41.97682,6.4034V9.2416a1.3972,1.3972,0,0,1-1.12871,1.3698v3.09025A1.03008,1.03008,0,0,1,39.818,14.73173h-.44929a1.03009,1.03009,0,0,1-1.03009-1.03008h0V10.60592A1.39718,1.39718,0,0,1,37.21,9.23613V6.39792A1.39717,1.39717,0,0,1,38.60713,5.00621Z"/><circle cx="25.39312" cy="9.79081" r="1.35883"/><path d="M24.40687,11.57154h1.9725a1.39718,1.39718,0,0,1,1.39718,1.39719v2.8382a1.39719,1.39719,0,0,1-1.1287,1.3698V20.267a1.03009,1.03009,0,0,1-1.03009,1.03009h-.44929A1.03009,1.03009,0,0,1,24.13839,20.267h0V17.17125a1.39719,1.39719,0,0,1-1.12871-1.36979V12.96325A1.39719,1.39719,0,0,1,24.40687,11.57154Z"/><circle cx="14.5919" cy="20.83573" r="1.35883"/><path d="M13.60565,22.61646h1.9725a1.39718,1.39718,0,0,1,1.39718,1.39719v2.83821a1.39717,1.39717,0,0,1-1.1287,1.36979V31.3119A1.03009,1.03009,0,0,1,14.81654,32.342h-.44929a1.03008,1.03008,0,0,1-1.03008-1.03008h0V28.21617a1.39719,1.39719,0,0,1-1.12871-1.36979V24.00817A1.3972,1.3972,0,0,1,13.60565,22.61646Z"/><circle cx="8.34153" cy="35.20845" r="1.35883"/><path d="M7.35528,36.98918h1.9725A1.39719,1.39719,0,0,1,10.725,38.38637v2.8382a1.39718,1.39718,0,0,1-1.12871,1.36979v3.09025A1.03009,1.03009,0,0,1,8.56617,46.7147H8.11688A1.03009,1.03009,0,0,1,7.0868,45.68461h0V42.58889a1.3972,1.3972,0,0,1-1.12871-1.3698v-2.8382A1.39719,1.39719,0,0,1,7.35528,36.98918Z"/><circle cx="7.76813" cy="51.51135" r="1.35883"/><path d="M6.78188,53.29207h1.9725a1.39719,1.39719,0,0,1,1.39719,1.39719v2.83821a1.39719,1.39719,0,0,1-1.12871,1.36979v3.09025a1.03008,1.03008,0,0,1-1.03008,1.03008H7.54349A1.03009,1.03009,0,0,1,6.5134,61.98751h0V58.89178A1.39717,1.39717,0,0,1,5.3847,57.522V54.68378A1.39718,1.39718,0,0,1,6.78188,53.29207Z"/><circle cx="13.03359" cy="66.38141" r="1.35883"/><path d="M12.04734,68.16214h1.9725A1.39719,1.39719,0,0,1,15.417,69.55932v2.83821a1.39719,1.39719,0,0,1-1.12871,1.36979v3.09025a1.03008,1.03008,0,0,1-1.03008,1.03008h-.4493a1.03008,1.03008,0,0,1-1.03008-1.03008h0V73.76184a1.39718,1.39718,0,0,1-1.12871-1.36979V69.55384A1.39718,1.39718,0,0,1,12.04734,68.16214Z"/><circle cx="23.06659" cy="78.14037" r="1.35883"/><path d="M22.08034,79.9211h1.9725A1.39719,1.39719,0,0,1,25.45,81.31829V84.1565a1.39719,1.39719,0,0,1-1.12871,1.36979v3.09025a1.03008,1.03008,0,0,1-1.03008,1.03008H22.842a1.03009,1.03009,0,0,1-1.03009-1.03008h0V85.52081a1.39718,1.39718,0,0,1-1.1287-1.36979V81.31281A1.39718,1.39718,0,0,1,22.08034,79.9211Z"/><circle cx="36.71534" cy="85.63644" r="1.35883"/><path d="M35.72909,87.41717h1.9725a1.39719,1.39719,0,0,1,1.39719,1.39718v2.83821a1.39719,1.39719,0,0,1-1.12871,1.36979V96.1126A1.03009,1.03009,0,0,1,36.94,97.14269h-.4493a1.03009,1.03009,0,0,1-1.03008-1.03009h0V93.01688a1.3972,1.3972,0,0,1-1.12871-1.3698v-2.8382A1.39719,1.39719,0,0,1,35.72909,87.41717Z"/><circle cx="52.79176" cy="87.71926" r="1.35883"/><path d="M51.80551,89.5H53.778a1.39718,1.39718,0,0,1,1.39718,1.39718v2.83821a1.39717,1.39717,0,0,1-1.1287,1.36979v3.09025a1.03009,1.03009,0,0,1-1.03009,1.03009h-.44929A1.03009,1.03009,0,0,1,51.537,98.19542h0V95.0997a1.3972,1.3972,0,0,1-1.12871-1.3698V90.8917A1.39719,1.39719,0,0,1,51.80551,89.5Z"/><circle cx="68.25963" cy="83.82566" r="1.35883"/><path d="M67.27338,85.60639h1.9725a1.39718,1.39718,0,0,1,1.39718,1.39719v2.8382a1.39719,1.39719,0,0,1-1.12871,1.3698v3.09024a1.03008,1.03008,0,0,1-1.03008,1.03009H68.035a1.03009,1.03009,0,0,1-1.03008-1.03009h0V91.2061a1.39719,1.39719,0,0,1-1.12871-1.36979V86.9981A1.39719,1.39719,0,0,1,67.27338,85.60639Z"/><circle cx="80.90435" cy="74.87657" r="1.35883"/><path d="M79.9181,76.65729h1.9725a1.3972,1.3972,0,0,1,1.39719,1.39719v2.83821a1.39719,1.39719,0,0,1-1.12871,1.36979v3.09025A1.03008,1.03008,0,0,1,81.129,86.38281h-.4493a1.03008,1.03008,0,0,1-1.03008-1.03008h0V82.257a1.39719,1.39719,0,0,1-1.12871-1.36979V78.049A1.3972,1.3972,0,0,1,79.9181,76.65729Z"/><circle cx="89.57412" cy="62.02378" r="1.35883"/><path d="M88.58787,63.8045h1.9725a1.39719,1.39719,0,0,1,1.39719,1.39719V68.0399a1.39719,1.39719,0,0,1-1.12871,1.36979v3.09025A1.03008,1.03008,0,0,1,89.79877,73.53h-.44929a1.03008,1.03008,0,0,1-1.03008-1.03008h0V69.40421a1.39718,1.39718,0,0,1-1.12871-1.36979V65.19621A1.39718,1.39718,0,0,1,88.58787,63.8045Z"/><circle cx="93.11715" cy="46.41909" r="1.35883"/><path d="M92.1309,48.19982h1.9725A1.39719,1.39719,0,0,1,95.50059,49.597v2.8382a1.3972,1.3972,0,0,1-1.12871,1.3698v3.09025a1.03008,1.03008,0,0,1-1.03008,1.03008h-.4493a1.03008,1.03008,0,0,1-1.03008-1.03008h0V53.79953a1.39719,1.39719,0,0,1-1.12871-1.36979V49.59153A1.39719,1.39719,0,0,1,92.1309,48.19982Z"/><circle cx="90.6406" cy="30.36448" r="1.35883"/><path d="M89.65435,32.14521h1.9725A1.39718,1.39718,0,0,1,93.024,33.54239V36.3806a1.39719,1.39719,0,0,1-1.12871,1.36979v3.09025a1.03009,1.03009,0,0,1-1.03008,1.03009H90.416a1.03009,1.03009,0,0,1-1.03008-1.03009h0V37.74492a1.3972,1.3972,0,0,1-1.12871-1.3698v-2.8382A1.39719,1.39719,0,0,1,89.65435,32.14521Z"/><circle cx="82.76822" cy="16.85683" r="1.35883"/><path d="M81.782,18.63756h1.9725a1.39719,1.39719,0,0,1,1.39719,1.39719V22.873A1.39719,1.39719,0,0,1,84.023,24.24275V27.333a1.03008,1.03008,0,0,1-1.03008,1.03008h-.44929A1.03009,1.03009,0,0,1,81.51349,27.333h0V24.23727a1.39717,1.39717,0,0,1-1.1287-1.36979V20.02927A1.39718,1.39718,0,0,1,81.782,18.63756Z"/><circle cx="70.67025" cy="7.08894" r="1.35883"/><path d="M69.684,8.86967h1.9725a1.39719,1.39719,0,0,1,1.39719,1.39718v2.83821A1.39719,1.39719,0,0,1,71.925,14.47485V17.5651a1.03009,1.03009,0,0,1-1.03008,1.03009h-.4493a1.03009,1.03009,0,0,1-1.03008-1.03009h0V14.46937a1.39718,1.39718,0,0,1-1.12871-1.36979v-2.8382A1.39719,1.39719,0,0,1,69.684,8.86967Z"/><circle cx="64.42741" cy="18.57297" r="1.32827"/><path d="M63.46334,20.31365h1.92814a1.36577,1.36577,0,0,1,1.36576,1.36577V24.4538a1.36574,1.36574,0,0,1-1.10332,1.339v3.02076A1.00691,1.00691,0,0,1,64.647,29.82045h-.43919a1.00691,1.00691,0,0,1-1.00691-1.00691h0V25.78743a1.36577,1.36577,0,0,1-1.10333-1.339V21.67406A1.36577,1.36577,0,0,1,63.46334,20.31365Z"/><circle cx="50.61759" cy="14.97332" r="1.32827"/><path d="M49.65352,16.714h1.92814a1.36578,1.36578,0,0,1,1.36577,1.36577v2.77438a1.36578,1.36578,0,0,1-1.10333,1.339v3.02075a1.00692,1.00692,0,0,1-1.00691,1.00692H50.398a1.00692,1.00692,0,0,1-1.00692-1.00692h0V22.18778a1.36575,1.36575,0,0,1-1.10332-1.339V18.07441A1.36577,1.36577,0,0,1,49.65352,16.714Z"/><circle cx="36.51866" cy="18.28363" r="1.32827"/><path d="M35.55459,20.02431h1.92814a1.36578,1.36578,0,0,1,1.36577,1.36577v2.77438a1.36577,1.36577,0,0,1-1.10333,1.339v3.02075a1.00691,1.00691,0,0,1-1.00691,1.00692h-.43919a1.00692,1.00692,0,0,1-1.00692-1.00692h0v-3.0261a1.36576,1.36576,0,0,1-1.10332-1.339V21.38472A1.36576,1.36576,0,0,1,35.55459,20.02431Z"/><circle cx="25.92674" cy="27.44456" r="1.32827"/><path d="M24.96267,29.18524h1.92814A1.36577,1.36577,0,0,1,28.25657,30.551v2.77438a1.36577,1.36577,0,0,1-1.10332,1.339v3.02075a1.00692,1.00692,0,0,1-1.00692,1.00692h-.43919a1.00692,1.00692,0,0,1-1.00691-1.00692h0V34.659A1.36577,1.36577,0,0,1,23.5969,33.32V30.54566A1.36578,1.36578,0,0,1,24.96267,29.18524Z"/><circle cx="20.63838" cy="40.66602" r="1.32827"/><path d="M19.67431,42.4067h1.92814a1.36577,1.36577,0,0,1,1.36576,1.36577v2.77438a1.36574,1.36574,0,0,1-1.10332,1.339v3.02076A1.00691,1.00691,0,0,1,20.858,51.9135h-.43919a1.00691,1.00691,0,0,1-1.00691-1.00691h0V47.88048a1.36578,1.36578,0,0,1-1.10333-1.339V43.76711A1.36577,1.36577,0,0,1,19.67431,42.4067Z"/><circle cx="22.21901" cy="55.23311" r="1.32827"/><path d="M21.25494,56.97379h1.92814a1.36578,1.36578,0,0,1,1.36577,1.36577v2.77438a1.36576,1.36576,0,0,1-1.10333,1.339v3.02076a1.00691,1.00691,0,0,1-1.00691,1.00691h-.43919a1.00691,1.00691,0,0,1-1.00692-1.00691h0V62.44757a1.36575,1.36575,0,0,1-1.10332-1.339V58.3342A1.36577,1.36577,0,0,1,21.25494,56.97379Z"/><circle cx="30.0851" cy="66.87121" r="1.32827"/><path d="M29.121,68.61189h1.92814a1.36576,1.36576,0,0,1,1.36576,1.36577V72.752a1.36576,1.36576,0,0,1-1.10332,1.339v3.02075a1.00692,1.00692,0,0,1-1.00692,1.00692h-.43919a1.00692,1.00692,0,0,1-1.00692-1.00692h0v-3.0261a1.36577,1.36577,0,0,1-1.10332-1.339V69.9723A1.36576,1.36576,0,0,1,29.121,68.61189Z"/><circle cx="42.45927" cy="73.65328" r="1.32827"/><path d="M41.4952,75.394h1.92814a1.36577,1.36577,0,0,1,1.36576,1.36577v2.77438a1.36575,1.36575,0,0,1-1.10332,1.339v3.02076a1.00691,1.00691,0,0,1-1.00692,1.00691h-.43919a1.00692,1.00692,0,0,1-1.00692-1.00691h0V80.86774a1.36576,1.36576,0,0,1-1.10332-1.339V76.75437A1.36577,1.36577,0,0,1,41.4952,75.394Z"/><circle cx="57.156" cy="73.85197" r="1.32827"/><path d="M56.19193,75.59265h1.92814a1.36576,1.36576,0,0,1,1.36577,1.36577v2.77437a1.36576,1.36576,0,0,1-1.10332,1.339v3.02075a1.00692,1.00692,0,0,1-1.00692,1.00692h-.43919a1.00692,1.00692,0,0,1-1.00692-1.00692h0v-3.0261a1.36577,1.36577,0,0,1-1.10332-1.339V76.95306A1.36576,1.36576,0,0,1,56.19193,75.59265Z"/><circle cx="69.72839" cy="67.3926" r="1.32827"/><path d="M68.76432,69.13328h1.92814a1.36577,1.36577,0,0,1,1.36576,1.36577v2.77438a1.36577,1.36577,0,0,1-1.10332,1.339v3.02075A1.00692,1.00692,0,0,1,69.948,78.64009h-.43919a1.00693,1.00693,0,0,1-1.00692-1.00692h0V74.60706a1.36577,1.36577,0,0,1-1.10332-1.339V70.49369A1.36578,1.36578,0,0,1,68.76432,69.13328Z"/><circle cx="77.89229" cy="55.97762" r="1.32827"/><path d="M76.92822,57.71831h1.92814a1.36577,1.36577,0,0,1,1.36577,1.36576v2.77438a1.36578,1.36578,0,0,1-1.10333,1.339v3.02075a1.00692,1.00692,0,0,1-1.00692,1.00692H77.6727a1.00692,1.00692,0,0,1-1.00692-1.00692h0V63.19208a1.36577,1.36577,0,0,1-1.10333-1.339V59.07872A1.36576,1.36576,0,0,1,76.92822,57.71831Z"/><circle cx="79.86207" cy="41.46674" r="1.32827"/><path d="M78.898,43.20742h1.92814a1.36576,1.36576,0,0,1,1.36576,1.36577v2.77437a1.36576,1.36576,0,0,1-1.10332,1.339V51.7073a1.00692,1.00692,0,0,1-1.00692,1.00692h-.43919a1.00691,1.00691,0,0,1-1.00691-1.00692h0V48.6812a1.36578,1.36578,0,0,1-1.10333-1.339V44.56783A1.36576,1.36576,0,0,1,78.898,43.20742Z"/><circle cx="74.86997" cy="28.01154" r="1.32827"/><path d="M73.9059,29.75222H75.834A1.36576,1.36576,0,0,1,77.1998,31.118v2.77438a1.36577,1.36577,0,0,1-1.10332,1.339V38.2521A1.00692,1.00692,0,0,1,75.08956,39.259h-.43919a1.00691,1.00691,0,0,1-1.00691-1.00692h0V35.226a1.36576,1.36576,0,0,1-1.10333-1.339V31.11263A1.36576,1.36576,0,0,1,73.9059,29.75222Z"/><circle cx="64.42741" cy="18.57297" r="1.32827"/><path d="M63.46334,20.31365h1.92814a1.36577,1.36577,0,0,1,1.36576,1.36577V24.4538a1.36574,1.36574,0,0,1-1.10332,1.339v3.02076A1.00691,1.00691,0,0,1,64.647,29.82045h-.43919a1.00691,1.00691,0,0,1-1.00691-1.00691h0V25.78743a1.36577,1.36577,0,0,1-1.10333-1.339V21.67406A1.36577,1.36577,0,0,1,63.46334,20.31365Z"/><circle cx="58.65432" cy="29.00265" r="1.32823"/><path d="M57.69028,30.74327h1.92807A1.36572,1.36572,0,0,1,60.98407,32.109v2.77429a1.36572,1.36572,0,0,1-1.10328,1.33894v3.02065a1.00689,1.00689,0,0,1-1.00689,1.00688h-.43917a1.00688,1.00688,0,0,1-1.00688-1.00688h0v-3.026a1.36571,1.36571,0,0,1-1.10329-1.33894V32.10363A1.36572,1.36572,0,0,1,57.69028,30.74327Z"/><circle cx="43.16456" cy="28.31204" r="1.32823"/><path d="M42.20052,30.05266h1.92807a1.36573,1.36573,0,0,1,1.36573,1.36572v2.77429A1.36573,1.36573,0,0,1,44.391,35.53161v3.02065a1.00689,1.00689,0,0,1-1.00689,1.00689H42.945a1.00688,1.00688,0,0,1-1.00688-1.00689h0v-3.026a1.36572,1.36572,0,0,1-1.10329-1.339V31.413A1.36572,1.36572,0,0,1,42.20052,30.05266Z"/><circle cx="33.14791" cy="39.70203" r="1.32823"/><path d="M32.18388,41.44265H34.112a1.36572,1.36572,0,0,1,1.36572,1.36572v2.77429a1.36571,1.36571,0,0,1-1.10328,1.33894v3.02065a1.00689,1.00689,0,0,1-1.00689,1.00689h-.43917a1.00689,1.00689,0,0,1-1.00689-1.00689h0v-3.026a1.36572,1.36572,0,0,1-1.10328-1.33894V42.803A1.36573,1.36573,0,0,1,32.18388,41.44265Z"/><circle cx="35.85389" cy="55.03023" r="1.32823"/><path d="M34.88985,56.77086h1.92807a1.36572,1.36572,0,0,1,1.36572,1.36572v2.77428a1.3657,1.3657,0,0,1-1.10328,1.33894v3.02066a1.00689,1.00689,0,0,1-1.00689,1.00688H35.6343a1.00688,1.00688,0,0,1-1.00688-1.00688h0v-3.026a1.36572,1.36572,0,0,1-1.10329-1.33894V58.13122A1.36572,1.36572,0,0,1,34.88985,56.77086Z"/><circle cx="49.30799" cy="62.3131" r="1.32823"/><path d="M48.344,64.05372H50.272a1.36572,1.36572,0,0,1,1.36572,1.36572v2.77429a1.36571,1.36571,0,0,1-1.10329,1.33894v3.02065a1.00688,1.00688,0,0,1-1.00688,1.00689h-.43917a1.00689,1.00689,0,0,1-1.00689-1.00689h0v-3.026a1.36574,1.36574,0,0,1-1.10329-1.33895V65.41409A1.36572,1.36572,0,0,1,48.344,64.05372Z"/><circle cx="63.5042" cy="56.32854" r="1.32823"/><path d="M62.54016,58.06916h1.92808A1.36573,1.36573,0,0,1,65.834,59.43488v2.77429a1.36572,1.36572,0,0,1-1.10329,1.33894v3.02065a1.00689,1.00689,0,0,1-1.00688,1.00689h-.43918a1.00689,1.00689,0,0,1-1.00688-1.00689h0v-3.026a1.36573,1.36573,0,0,1-1.10329-1.33894V59.42953A1.36573,1.36573,0,0,1,62.54016,58.06916Z"/><circle cx="67.64151" cy="41.35939" r="1.32823"/><path d="M66.67748,43.1h1.92807a1.36572,1.36572,0,0,1,1.36572,1.36572V47.24A1.36571,1.36571,0,0,1,68.868,48.579v3.02065A1.00688,1.00688,0,0,1,67.8611,52.6065h-.43917A1.00689,1.00689,0,0,1,66.415,51.59961h0v-3.026a1.3657,1.3657,0,0,1-1.10328-1.33894V44.46038A1.36572,1.36572,0,0,1,66.67748,43.1Z"/><circle cx="58.65432" cy="29.00265" r="1.32823"/><path d="M57.69028,30.74327h1.92807A1.36572,1.36572,0,0,1,60.98407,32.109v2.77429a1.36572,1.36572,0,0,1-1.10328,1.33894v3.02065a1.00689,1.00689,0,0,1-1.00689,1.00688h-.43917a1.00688,1.00688,0,0,1-1.00688-1.00688h0v-3.026a1.36571,1.36571,0,0,1-1.10329-1.33894V32.10363A1.36572,1.36572,0,0,1,57.69028,30.74327Z"/><circle cx="51.02979" cy="37.33664" r="2.51231"/><path d="M52.85324,40.629h-3.6469a2.58322,2.58322,0,0,0-2.58322,2.58322v5.24748A2.58322,2.58322,0,0,0,48.71,50.99225v5.71348a1.90449,1.90449,0,0,0,1.90449,1.90449h.83068a1.90449,1.90449,0,0,0,1.90449-1.90449h0V50.98212a2.58322,2.58322,0,0,0,2.08684-2.53257V43.20207A2.58322,2.58322,0,0,0,52.85324,40.629Z"/></svg>