<svg xmlns="http://www.w3.org/2000/svg" data-name="Layer 1" viewBox="0 0 512 640" x="0px" y="0px"><title>Child</title><path d="M210.782,127.188a3.094,3.094,0,1,0-3.094-3.094A3.1,3.1,0,0,0,210.782,127.188Z"/><path d="M363.286,217.681a299.911,299.911,0,0,1-136.55,127.265,269.039,269.039,0,0,0,57.881,35.029,315.256,315.256,0,0,0,78.669-62.018Z"/><path d="M214.854,334.939A285.842,285.842,0,0,0,363.286,185.856v-55.57a107.286,107.286,0,0,0-214.572,0V249.772l18.205,28.657A269.154,269.154,0,0,0,214.854,334.939ZM157.571,143.624a26.491,26.491,0,0,1,13.613-23.18,85.122,85.122,0,0,1,84.785-77.561c1.818,0,3.625.078,5.426.191a6.983,6.983,0,0,1,1.116.08A85.068,85.068,0,0,1,340.743,120.4a26.536,26.536,0,0,1-10.764,49.671,85.145,85.145,0,0,1-148.02,0A26.564,26.564,0,0,1,157.571,143.624Z"/><path d="M166.933,417.769a315.276,315.276,0,0,0,102.075-29.645A281.85,281.85,0,0,1,155.1,285.936l-6.388-10.055V381.714a106.769,106.769,0,0,0,6.717,37.365Z"/><path d="M363.286,381.714V338.14a329.14,329.14,0,0,1-72.4,54.367,7.008,7.008,0,0,1-4.488,2.446,329.214,329.214,0,0,1-117.882,36.726l-7.011.8a107.272,107.272,0,0,0,201.78-50.764Z"/><path d="M301.218,127.188a3.094,3.094,0,1,0-3.094-3.094A3.1,3.1,0,0,0,301.218,127.188Z"/><path d="M259.556,88.17a5.4,5.4,0,0,0,3.906-2.543,6.653,6.653,0,0,0,.774-5.607c-.611-1.879-1.852-3.021-3.319-3.058-1.374-.036-2.5.915-3.173,2.672a7.006,7.006,0,0,1-11.014,2.9C249.515,85.9,253.987,88.788,259.556,88.17Z"/><path d="M185.411,156.082a6.927,6.927,0,0,1,.731-.039A7,7,0,0,1,192.4,159.9a71.141,71.141,0,0,0,127.156-.009,7,7,0,0,1,7.045-3.811,11.854,11.854,0,0,0,1.3.072,12.53,12.53,0,0,0,3.937-24.425,7,7,0,0,1-4.808-6.393A71.07,71.07,0,0,0,261.47,57.112c-4.848.576-11.314,2.526-15.92,8.386-4.028,5.124-2.346,10.718-1.131,13.385a6.983,6.983,0,0,1,.239-4.226c2.769-7.28,9.3-11.86,16.6-11.69,7.441.181,13.835,5.175,16.29,12.721a20.507,20.507,0,0,1-2.325,17.533,19.35,19.35,0,0,1-14.136,8.865,27.231,27.231,0,0,1-2.971.163c-10.3,0-20.041-5.858-25.4-15.5-4.66-8.388-4.883-17.826-.868-25.662A71.173,71.173,0,0,0,184.9,125.357a7,7,0,0,1-4.78,6.385,12.53,12.53,0,0,0,3.979,24.411A12.756,12.756,0,0,0,185.411,156.082Zm115.807-42.894a10.906,10.906,0,1,1-10.906,10.906A10.919,10.919,0,0,1,301.218,113.188Zm-73.755,34.748a7,7,0,0,1,7,7,21.123,21.123,0,0,0,42.245,0,7,7,0,1,1,14,0,35.123,35.123,0,0,1-70.245,0A7,7,0,0,1,227.463,147.936Zm-16.681-34.748a10.906,10.906,0,1,1-10.906,10.906A10.918,10.918,0,0,1,210.782,113.188Z"/></svg>